# xmcd
#
# Track frame offsets:
#        150
#        21002
#        34257
#        56840
#        70615
#        89587
#        104512
#        121125
#        138077
#        149792
#        164315
#        181317
#
# Disc length: 2842 seconds
#
# Revision: 2
# Processed by: cddbd v1.5.1PL0 Copyright (c) Steve Scherf et al.
# Submitted via: ExactAudioCopy v0.95a5
#
DISCID=aa0b180c
DTITLE=Carpenters - Anthology Disc1
DYEAR=1998
DGENRE=Pop
TTITLE0=A Song For You
TTITLE1=Top Of The World
TTITLE2=Because We Are In Love (The Wedding Song)
TTITLE3=We've Only Just Begun
TTITLE4=Those Good Old Dreams
TTITLE5=Sing
TTITLE6=Jambalaya (On The Bayou)
TTITLE7=(They Long To Be) Close To You
TTITLE8=Ave Maria
TTITLE9=Bless The Beasts And Children
TTITLE10=All You Get From Love Is A Love Song
TTITLE11=Calling Occupants Of Interplanetary Craft
EXTD=YEAR: 1998 ID3G:  13
EXTT0=
EXTT1=
EXTT2=
EXTT3=
EXTT4=
EXTT5=
EXTT6=
EXTT7=
EXTT8=
EXTT9=
EXTT10=
EXTT11=
PLAYORDER=
